<svg width="150" height="150" viewBox="0 0 150 150" fill="none" xmlns="http://www.w3.org/2000/svg">
<rect width="150" height="150" fill="white"/>
<path d="M39.8008 108.278C39.8008 111.706 42.5986 114.504 46.041 114.504H53.1748V132.141C53.1748 136.608 56.7637 140.256 61.1729 140.256C65.5967 140.256 69.1709 136.623 69.1709 132.141V114.489H81.6221V132.126C81.6221 136.594 85.2109 140.241 89.6201 140.241C94.0439 140.241 97.6182 136.608 97.6182 132.126V114.489H104.752C108.194 114.489 110.992 111.691 110.992 108.264V50.373H39.8008V108.278V108.278ZM92.1104 20.373L98.6875 10.8515C99.0684 10.2949 98.9805 9.54783 98.4678 9.18162C97.9551 8.83006 97.2227 9.00584 96.8418 9.56248L90.0156 19.4648C85.5186 17.6924 80.5088 16.7109 75.25 16.7109C69.9912 16.7109 64.9814 17.6924 60.4844 19.4648L53.6582 9.57713C53.2773 9.02049 52.5449 8.83006 52.0322 9.19627C51.5195 9.54783 51.4316 10.2803 51.8125 10.8662L58.3896 20.3877C47.9307 25.251 40.6064 34.4648 39.6689 45.2314H110.86C109.894 34.4502 102.555 25.2363 92.1104 20.373V20.373ZM60.2207 35.3877C59.4414 35.3877 58.6795 35.1566 58.0315 34.7236C57.3835 34.2906 56.8785 33.6752 56.5802 32.9552C56.282 32.2352 56.2039 31.4429 56.356 30.6785C56.508 29.9141 56.8833 29.212 57.4344 28.6609C57.9855 28.1099 58.6876 27.7346 59.452 27.5825C60.2163 27.4305 61.0086 27.5085 61.7286 27.8068C62.4487 28.105 63.0641 28.6101 63.4971 29.2581C63.93 29.9061 64.1611 30.6679 64.1611 31.4472C64.1584 32.4915 63.7424 33.4922 63.004 34.2306C62.2656 34.9689 61.2649 35.385 60.2207 35.3877V35.3877ZM90.748 35.3877C89.9687 35.3877 89.2069 35.1566 88.5589 34.7236C87.9109 34.2906 87.4058 33.6752 87.1076 32.9552C86.8093 32.2352 86.7313 31.4429 86.8833 30.6785C87.0354 29.9141 87.4107 29.212 87.9617 28.6609C88.5128 28.1099 89.2149 27.7346 89.9793 27.5825C90.7437 27.4305 91.536 27.5085 92.256 27.8068C92.976 28.105 93.5914 28.6101 94.0244 29.2581C94.4574 29.9061 94.6885 30.6679 94.6885 31.4472C94.6858 32.4915 94.2697 33.4922 93.5314 34.2306C92.793 34.9689 91.7923 35.385 90.748 35.3877ZM123.473 50.1387C119.049 50.1387 115.475 53.7715 115.475 58.2539V89.9531C115.475 94.4209 119.063 98.0683 123.473 98.0683C127.896 98.0683 131.471 94.4355 131.471 89.9531V58.2392C131.485 53.7568 127.911 50.1387 123.473 50.1387ZM26.998 50.1387C22.5742 50.1387 19 53.7715 19 58.2539V89.9531C19 94.4209 22.5889 98.0683 26.998 98.0683C31.4219 98.0683 34.9961 94.4355 34.9961 89.9531V58.2392C34.9961 53.7568 31.4072 50.1387 26.998 50.1387Z" fill="url(#paint0_linear_3_5)"/>
<defs>
<linearGradient id="paint0_linear_3_5" x1="75.2354" y1="9" x2="185.5" y2="169.5" gradientUnits="userSpaceOnUse">
<stop stop-color="#0CABAD"/>
<stop offset="1" stop-color="#08987A"/>
</linearGradient>
</defs>
</svg>
