<svg width="150" height="150" viewBox="0 0 150 150" fill="none" xmlns="http://www.w3.org/2000/svg">
<rect width="150" height="150" fill="white"/>
<path d="M41.7993 57.0449C50.8583 57.06 58.5629 62.1883 62.0199 70.4991C65.468 78.7859 64.0049 88.2642 57.4889 94.21C47.4706 103.35 39.8295 114.183 33.2894 125.912C30.6166 130.702 26.6799 133.384 21.0659 132.911C13.4609 132.268 8.52269 124.932 10.399 117.526C12.746 108.259 14.9813 98.9642 17.1533 89.6518C18.3751 84.4149 19.2982 79.1087 20.4777 73.8627C22.7281 63.8595 31.4432 57.0268 41.7993 57.0449ZM29.9107 79.356C29.7388 79.6909 29.6151 79.9986 29.4371 80.2701C28.8579 81.1509 28.2757 82.0318 27.6633 82.8915C27.1626 83.5944 27.3043 84.065 28.0193 84.5447C28.7282 85.0213 29.1415 84.8162 29.5517 84.1917C30.3934 82.9096 31.3436 81.6849 32.0676 80.3395C32.3452 79.8206 32.3663 78.9035 32.0857 78.3998C31.3406 77.0664 30.3542 75.8718 29.4914 74.6018C29.0691 73.9804 28.5442 73.8597 28.0977 74.4178C27.8111 74.7768 27.5547 75.4555 27.7086 75.8054C28.0645 76.629 28.686 77.3319 29.1837 78.0981C29.4401 78.4993 29.6604 78.9186 29.9107 79.356ZM53.6608 84.8403C54.7679 84.7468 55.3531 83.6548 54.7166 82.9911C52.433 80.6049 52.2038 78.3093 54.7136 75.9502C55.2928 75.4042 55.1872 74.9035 54.5115 74.4268C53.881 73.9834 53.4285 73.9411 52.967 74.632C52.1374 75.8658 51.1691 77.0181 50.4662 78.3153C50.1705 78.8613 50.1585 79.8206 50.4451 80.3696C51.151 81.7211 52.0891 82.9549 52.967 84.2128C53.1631 84.4994 53.4949 84.6955 53.6608 84.8403ZM41.0754 70.7254C41.2986 70.662 41.5067 70.65 41.6576 70.5504C43.19 69.567 44.7376 68.6047 46.2067 67.5308C46.4148 67.3799 46.3846 66.4961 46.1494 66.2517C45.8628 65.95 45.1267 65.7238 44.7949 65.8897C43.8175 66.3784 42.9909 67.1748 42.0075 67.6514C41.5278 67.8837 40.7405 67.8656 40.2548 67.6303C39.3166 67.1718 38.5383 66.3935 37.6032 65.9229C37.2533 65.7479 36.5353 65.9108 36.2035 66.1823C35.6273 66.659 35.6967 67.2231 36.3995 67.6937C37.6756 68.5444 38.9034 69.4705 40.1673 70.3393C40.4419 70.5233 40.7827 70.6017 41.0754 70.7254ZM45.5913 93.5011C46.988 92.0139 46.9789 91.851 45.5309 90.8645C44.4208 90.1074 43.3439 89.2808 42.1613 88.6594C41.6636 88.3969 40.7918 88.3396 40.3302 88.6051C38.9607 89.3894 37.6696 90.3306 36.4478 91.3321C36.1793 91.5523 36.1703 92.3367 36.3241 92.759C36.5474 93.3654 37.0451 93.5705 37.6937 93.0697C38.5655 92.397 39.4614 91.7243 40.4328 91.2205C40.8732 90.9943 41.6304 90.9762 42.0588 91.2084C43.2685 91.8661 44.3876 92.7017 45.5913 93.5011Z" fill="url(#paint0_linear_5_41)"/>
<path d="M113.632 57.0871C124.7 57.066 133.608 64.8037 135.605 75.7692C136.954 83.1812 138.757 90.5146 140.444 97.8632C142.046 104.838 143.955 111.749 145.364 118.76C146.592 124.874 143.15 130.328 137.24 132.515C132.048 134.434 125.928 132.102 122.887 126.874C118.805 119.852 114.805 112.762 109.596 106.506C106.44 102.717 103.01 99.1181 99.4143 95.7425C93.2242 89.9264 90.4881 82.9821 92.3795 74.6772C94.3041 66.2185 99.5501 60.499 107.936 57.8624C108.85 57.5758 109.81 57.4069 110.76 57.2802C111.707 57.1535 112.673 57.1475 113.632 57.0871ZM119.382 68.1703C119.46 65.5338 117.508 63.4221 114.905 63.3256C112.289 63.229 110.126 65.22 110.054 67.7962C109.979 70.3845 111.997 72.5837 114.531 72.6802C117.077 72.7737 119.303 70.7043 119.382 68.1703ZM119.382 90.8615C119.397 88.2944 117.294 86.1344 114.757 86.1073C112.229 86.0801 110.066 88.228 110.048 90.7801C110.03 93.3714 112.093 95.477 114.673 95.5011C117.261 95.5192 119.369 93.4438 119.382 90.8615ZM107.936 79.3892C107.967 76.8251 105.858 74.7074 103.282 74.7104C100.739 74.7164 98.5908 76.8583 98.5878 79.3953C98.5848 81.9202 100.745 84.0892 103.27 84.1012C105.779 84.1163 107.906 81.9654 107.936 79.3892ZM121.49 79.356C121.46 81.9353 123.538 84.0801 126.1 84.1073C128.622 84.1344 130.821 81.9775 130.845 79.4526C130.869 76.9126 128.748 74.7526 126.196 74.7164C123.626 74.6802 121.52 76.7557 121.49 79.356Z" fill="url(#paint1_linear_5_41)"/>
<path d="M119.638 54.2304C119.75 55.1897 119.303 55.4943 118.271 55.2892C112.093 54.0735 106.338 55.1866 100.98 58.4748C100.537 58.7463 100.027 58.9303 99.5259 59.0781C96.6752 59.9137 96.4821 59.778 96.2499 56.885C95.5802 48.5289 87.9661 40.8183 79.5467 40.4805C75.7698 40.3297 72.2886 39.2919 68.738 38.3507C67.2659 37.9586 66.0442 38.0883 64.8073 39.0023C64.2764 39.3945 63.5071 39.6388 62.8405 39.6449C57.9837 39.6962 53.1238 39.6509 48.264 39.6931C47.2806 39.7022 46.6169 39.3824 46.1192 38.5589C45.6214 37.7383 45.0905 36.9359 44.5445 36.1425C43.7119 34.9299 43.7843 33.8348 44.8492 32.782C47.175 30.4833 49.4858 28.1695 51.7875 25.8437C52.789 24.8331 53.8328 24.7185 55.0153 25.5089C57.0907 26.8995 59.1451 28.3264 61.2899 29.6024C61.8299 29.9252 62.7379 29.9313 63.3714 29.7352C64.7379 29.3098 66.017 28.61 67.3685 28.1213C68.3308 27.7713 68.8466 27.2072 69.0216 26.1785C69.4047 23.904 69.8753 21.6445 70.3187 19.379C70.6657 17.5962 71.3263 17.0321 73.1876 17.017C76.2676 16.9959 79.3446 16.9929 82.4246 17.017C84.3733 17.0321 84.9284 17.566 85.3024 19.5118C85.7459 21.8255 86.1561 24.1483 86.7414 26.4259C86.8982 27.0413 87.5408 27.6899 88.129 28.0006C89.4805 28.7156 90.9104 29.3159 92.3644 29.7895C92.9496 29.9795 93.8094 29.9282 94.3222 29.6175C96.4188 28.3536 98.4218 26.9357 100.476 25.6024C101.96 24.6401 102.639 24.6974 103.915 25.9342C106.193 28.1424 108.455 30.3657 110.694 32.61C111.945 33.865 112.009 34.5528 111.059 36.043C109.713 38.1486 108.28 40.1999 107.007 42.3448C106.703 42.8576 106.678 43.7173 106.868 44.3056C107.327 45.7144 108.054 47.0357 108.546 48.4354C108.875 49.3705 109.424 49.8321 110.374 50.004C112.691 50.4264 114.995 50.906 117.306 51.3555C118.989 51.7054 119.647 52.4807 119.638 54.2304Z" fill="url(#paint2_linear_5_41)"/>
<path d="M60.9641 94.1075C68.2463 82.7106 67.5434 72.1071 59.127 61.8143C71.7939 64.0255 84.3612 63.76 97.0131 61.1174C92.7445 65.754 90.0024 70.9758 89.6374 77.2686C89.2723 83.5583 91.0733 89.2055 94.7807 94.4212C83.5739 92.4242 72.4274 92.1889 60.9641 94.1075ZM77.7367 75.2353C79.2269 75.2353 80.7171 75.2353 82.2074 75.2353C82.9283 75.2353 83.5588 74.9699 83.3446 74.1705C83.224 73.724 82.6387 73.0905 82.2496 73.0784C79.2722 72.9879 76.2887 72.9849 73.3082 73.0754C72.904 73.0875 72.2826 73.6938 72.171 74.1282C71.9447 75.0272 72.6446 75.2414 73.4078 75.2384C74.8528 75.2353 76.2947 75.2384 77.7367 75.2353ZM77.7548 83.1782C79.242 83.1782 80.7292 83.1691 82.2164 83.1812C82.9495 83.1872 83.5588 82.9369 83.3476 82.1344C83.227 81.6759 82.6719 81.0002 82.2918 80.9881C79.2722 80.8946 76.2465 80.8946 73.2268 80.9881C72.8467 81.0002 72.2886 81.6699 72.1649 82.1284C71.9508 82.9278 72.5511 83.1903 73.2901 83.1812C74.7804 83.1691 76.2676 83.1782 77.7548 83.1782Z" fill="url(#paint3_linear_5_41)"/>
<path d="M50.4722 48.2846C45.9985 48.2846 41.5218 48.3208 37.0481 48.2635C35.76 48.2484 35.2261 48.6134 35.2743 49.9799C35.3347 51.7085 35.0089 51.9378 33.2411 51.9498C31.959 51.9589 30.7011 52.167 30.1279 50.4174C29.8504 49.5727 28.8308 49.7446 28.508 50.6225C28.0615 51.8322 27.2259 51.983 26.1248 51.9649C23.1414 51.9196 20.1579 51.9739 17.1744 51.9377C13.1774 51.8895 10.2422 49.0116 10.2241 45.1774C10.206 41.1985 13.1834 38.1486 17.2137 38.0883C20.2937 38.0431 23.3737 38.1034 26.4506 38.0612C27.4763 38.0461 28.2063 38.2784 28.5925 39.3342C28.7131 39.66 29.1898 40.0582 29.5035 40.0552C29.8172 40.0522 30.2275 39.6509 30.4175 39.3221C31.1234 38.1004 32.2336 37.7173 34.2668 38.1004C35.6122 38.3538 35.4885 39.4277 35.4433 40.3689C35.392 41.473 35.9018 41.7686 36.9154 41.7686C45.9141 41.7475 54.9097 41.7716 63.9084 41.7234C64.5569 41.7204 65.1904 41.2075 65.8481 40.9933C66.5419 40.7701 67.3111 40.3568 67.9537 40.4865C69.8331 40.8636 71.6642 41.4851 73.5194 41.9828C74.4485 42.2332 74.8618 42.8033 74.8498 43.7626C74.7924 48.1639 75.3958 47.5425 71.3866 48.6858C70.4153 48.9633 69.45 49.259 68.4846 49.5516C67.4499 49.8653 66.5781 49.7597 65.6882 48.9875C65.1754 48.544 64.3126 48.3208 63.6037 48.3117C59.2295 48.2544 54.8494 48.2846 50.4722 48.2846Z" fill="url(#paint4_linear_5_41)"/>
<path d="M60.6534 50.6859C60.1044 53.3345 59.5674 55.7991 59.0908 58.2788C58.9279 59.1204 58.5056 59.3074 57.7665 59.0601C55.6397 58.3512 53.4316 57.8263 51.4074 56.8971C46.8734 54.8126 42.1945 54.3722 37.3317 55.1173C36.9094 55.1807 36.4569 55.0419 36.0195 54.9966C36.1401 54.4748 36.1703 53.9076 36.3995 53.437C37.7601 50.6376 40.5505 50.6919 42.9638 50.5984C48.629 50.3872 54.3064 50.526 59.9777 50.535C60.2431 50.535 60.5116 50.6527 60.6534 50.6859Z" fill="url(#paint5_linear_5_41)"/>
<path d="M117.11 68.0406C117.08 69.4071 115.943 70.472 114.588 70.4056C113.3 70.3423 112.301 69.2472 112.323 67.929C112.344 66.6046 113.381 65.576 114.7 65.5669C116.078 65.5609 117.14 66.6499 117.11 68.0406Z" fill="url(#paint6_linear_5_41)"/>
<path d="M117.11 90.8827C117.137 92.2341 116.012 93.4076 114.7 93.3985C113.439 93.3895 112.347 92.2854 112.32 90.9973C112.292 89.6428 113.415 88.4693 114.73 88.4784C115.991 88.4874 117.086 89.5945 117.11 90.8827Z" fill="url(#paint7_linear_5_41)"/>
<path d="M105.686 79.4677C105.683 80.7286 104.564 81.8538 103.306 81.8599C102.024 81.8659 100.844 80.6562 100.865 79.3621C100.886 78.1162 102.015 76.9819 103.255 76.9638C104.537 76.9427 105.689 78.1283 105.686 79.4677Z" fill="url(#paint8_linear_5_41)"/>
<path d="M126.097 76.9638C127.336 76.9367 128.513 78.0408 128.57 79.2866C128.631 80.5838 127.487 81.8206 126.193 81.8598C124.89 81.896 123.725 80.7226 123.735 79.3832C123.744 78.08 124.808 76.991 126.097 76.9638Z" fill="url(#paint9_linear_5_41)"/>
<defs>
<linearGradient id="paint0_linear_5_41" x1="36.9147" y1="57.0449" x2="36.9147" y2="132.964" gradientUnits="userSpaceOnUse">
<stop stop-color="#0DABAE"/>
<stop offset="1" stop-color="#08987A"/>
</linearGradient>
<linearGradient id="paint1_linear_5_41" x1="118.7" y1="57.0871" x2="118.7" y2="133.181" gradientUnits="userSpaceOnUse">
<stop stop-color="#0DABAE"/>
<stop offset="1" stop-color="#08987A"/>
</linearGradient>
<linearGradient id="paint2_linear_5_41" x1="81.8165" y1="17" x2="81.8165" y2="59.5239" gradientUnits="userSpaceOnUse">
<stop stop-color="#0DABAE"/>
<stop offset="1" stop-color="#08987A"/>
</linearGradient>
<linearGradient id="paint3_linear_5_41" x1="78.07" y1="61.1174" x2="78.07" y2="94.4212" gradientUnits="userSpaceOnUse">
<stop stop-color="#0DABAE"/>
<stop offset="1" stop-color="#08987A"/>
</linearGradient>
<linearGradient id="paint4_linear_5_41" x1="42.5382" y1="37.9578" x2="42.5382" y2="51.9662" gradientUnits="userSpaceOnUse">
<stop stop-color="#0DABAE"/>
<stop offset="1" stop-color="#08987A"/>
</linearGradient>
<linearGradient id="paint5_linear_5_41" x1="48.3364" y1="50.4819" x2="48.3364" y2="59.1611" gradientUnits="userSpaceOnUse">
<stop stop-color="#0DABAE"/>
<stop offset="1" stop-color="#08987A"/>
</linearGradient>
<linearGradient id="paint6_linear_5_41" x1="114.716" y1="65.5669" x2="114.716" y2="70.4086" gradientUnits="userSpaceOnUse">
<stop stop-color="#0DABAE"/>
<stop offset="1" stop-color="#08987A"/>
</linearGradient>
<linearGradient id="paint7_linear_5_41" x1="114.715" y1="88.4783" x2="114.715" y2="93.3986" gradientUnits="userSpaceOnUse">
<stop stop-color="#0DABAE"/>
<stop offset="1" stop-color="#08987A"/>
</linearGradient>
<linearGradient id="paint8_linear_5_41" x1="103.275" y1="76.9636" x2="103.275" y2="81.8599" gradientUnits="userSpaceOnUse">
<stop stop-color="#0DABAE"/>
<stop offset="1" stop-color="#08987A"/>
</linearGradient>
<linearGradient id="paint9_linear_5_41" x1="126.154" y1="76.9633" x2="126.154" y2="81.8606" gradientUnits="userSpaceOnUse">
<stop stop-color="#0DABAE"/>
<stop offset="1" stop-color="#08987A"/>
</linearGradient>
</defs>
</svg>
