<svg width="150" height="150" viewBox="0 0 150 150" fill="none" xmlns="http://www.w3.org/2000/svg">
<rect width="150" height="150" fill="white"/>
<path d="M45.8824 6C41.6701 6 37.6304 7.67761 34.6518 10.6638C31.6733 13.6499 30 17.7 30 21.9231V128.077C30 132.3 31.6733 136.35 34.6518 139.336C37.6304 142.322 41.6701 144 45.8824 144H104.118C108.33 144 112.37 142.322 115.348 139.336C118.327 136.35 120 132.3 120 128.077V21.9231C120 17.7 118.327 13.6499 115.348 10.6638C112.37 7.67761 108.33 6 104.118 6L45.8824 6ZM69.7059 11.3077H80.2941C80.9962 11.3077 81.6695 11.5873 82.1659 12.085C82.6623 12.5827 82.9412 13.2577 82.9412 13.9615C82.9412 14.6654 82.6623 15.3404 82.1659 15.8381C81.6695 16.3358 80.9962 16.6154 80.2941 16.6154H69.7059C69.0038 16.6154 68.3305 16.3358 67.8341 15.8381C67.3377 15.3404 67.0588 14.6654 67.0588 13.9615C67.0588 13.2577 67.3377 12.5827 67.8341 12.085C68.3305 11.5873 69.0038 11.3077 69.7059 11.3077ZM43.2353 21.9231H106.765C107.467 21.9231 108.14 22.2027 108.636 22.7004C109.133 23.1981 109.412 23.8731 109.412 24.5769V114.808C109.412 115.512 109.133 116.187 108.636 116.684C108.14 117.182 107.467 117.462 106.765 117.462H43.2353C42.5332 117.462 41.86 117.182 41.3635 116.684C40.8671 116.187 40.5882 115.512 40.5882 114.808V24.5769C40.5882 23.8731 40.8671 23.1981 41.3635 22.7004C41.86 22.2027 42.5332 21.9231 43.2353 21.9231V21.9231ZM82.6129 48.4615C80.4265 48.6048 77.9806 49.9583 76.4876 51.7788C75.1324 53.4242 73.8988 55.8605 74.3382 58.2489C76.7259 58.3126 79.1982 56.9432 80.6276 55.0962C81.9618 53.3765 82.9782 50.9455 82.6076 48.4615H82.6129ZM67.8847 57.9145C64.7612 57.9145 61.3888 59.9633 59.2818 63.2222C56.3065 67.7975 56.7935 76.2738 61.6006 83.625C63.3265 86.247 65.7088 89.2352 68.7159 89.2671C71.3788 89.2936 72.0353 87.627 75.6618 87.6058C79.2882 87.5845 79.9341 89.2936 82.6129 89.2671C85.6094 89.2352 88.1718 86.0825 89.8871 83.4605C91.1153 81.5762 91.5812 80.6102 92.5341 78.4818C85.5724 75.8439 84.3282 65.8389 91.2106 62.0598C89.1141 59.4378 86.2182 57.9198 83.4388 57.9198C79.7594 57.9198 78.2188 59.7404 75.6618 59.7404C73.0253 59.7404 71.0718 57.9145 67.8847 57.9145V57.9145ZM75 123.937C78.7376 123.937 81.7818 126.989 81.7818 130.736C81.7818 134.483 78.7376 137.535 75 137.535C73.2022 137.532 71.4789 136.815 70.2077 135.541C68.9364 134.266 68.221 132.538 68.2182 130.736C68.2182 126.989 71.2624 123.937 75 123.937Z" fill="url(#paint0_linear_3_14)"/>
<defs>
<linearGradient id="paint0_linear_3_14" x1="75" y1="6" x2="75" y2="144" gradientUnits="userSpaceOnUse">
<stop stop-color="#0DABAE"/>
<stop offset="1" stop-color="#09997B"/>
</linearGradient>
</defs>
</svg>
