<svg width="150" height="150" viewBox="0 0 150 150" fill="none" xmlns="http://www.w3.org/2000/svg">
<rect width="150" height="150" fill="white"/>
<path d="M20 58.7793C20.657 61.7583 21.26 64.5183 21.881 67.2783C24.197 77.5743 26.516 87.8703 28.844 98.1633C29.081 99.2163 29.471 100.242 29.633 101.304C29.774 102.219 30.344 102.393 31.049 102.396C35.996 102.414 40.943 102.411 45.89 102.411C64.79 102.411 83.69 102.411 102.59 102.411C103.07 102.411 103.553 102.411 104.201 102.411C103.751 105.009 103.424 107.421 102.887 109.782C102.596 111.06 101.561 111.798 100.232 111.975C99.653 112.053 99.062 112.032 98.474 112.032C81.596 112.044 64.721 112.056 47.843 112.065C44.462 112.068 41.084 112.068 37.703 112.059C35.381 112.053 33.521 113.745 33.368 116.022C33.212 118.365 34.886 120.354 37.232 120.594C37.679 120.639 38.135 120.618 38.585 120.618C61.106 120.618 83.63 120.618 106.151 120.618C109.448 120.618 110.705 119.583 111.248 116.301C112.31 109.899 113.303 103.488 114.377 97.0893C116.66 83.4783 118.979 69.8703 121.283 56.2623C121.463 55.1943 121.643 54.1263 121.808 53.0583C122.081 51.3033 123.053 50.2443 124.802 49.8273C129.848 48.6273 134.891 47.4183 139.922 46.1583C143.471 45.2703 145.241 41.9823 143.96 38.7963C142.991 36.3843 140.483 34.9143 137.951 35.5023C131.144 37.0863 124.349 38.7333 117.566 40.4283C115.448 40.9563 114.194 42.4623 113.819 44.6133C113.087 48.8343 112.346 53.0583 111.719 57.2943C111.542 58.4853 111.116 58.8093 109.928 58.8093C80.726 58.7763 51.524 58.7823 22.322 58.7823C21.614 58.7793 20.906 58.7793 20 58.7793Z" fill="url(#paint0_linear_4_27)"/>
<path d="M53.861 57.0213C47.057 46.8183 51.392 36.7443 56.909 32.4003C63.62 27.1203 72.875 27.0963 79.406 32.4813C83.048 35.4843 85.163 39.3483 85.781 44.0373C86.303 47.9973 85.634 50.6043 82.325 57.0243C83.3 57.0243 84.167 57.0243 85.034 57.0243C88.193 57.0243 91.352 56.9943 94.508 57.0363C95.369 57.0483 95.891 56.8203 96.032 55.9323C96.068 55.7133 96.182 55.5093 96.248 55.2933C97.205 52.1943 96.65 52.3683 100.322 52.3713C102.083 52.3743 103.841 52.3773 105.602 52.3293C107.492 52.2813 108.404 51.3273 108.398 49.4343C108.392 47.0433 108.371 44.6523 108.317 42.2613C108.272 40.3413 107.369 39.4533 105.455 39.4413C103.244 39.4263 101.03 39.4143 98.822 39.5043C97.547 39.5553 96.896 39.1353 96.452 37.8663C95.681 35.6613 94.721 33.5163 93.695 31.4133C93.215 30.4323 93.272 29.7693 94.034 29.0223C95.705 27.3783 97.34 25.6923 98.963 24.0003C100.193 22.7193 100.172 21.3453 98.903 20.0793C97.214 18.3903 95.513 16.7073 93.791 15.0513C92.366 13.6833 91.076 13.7043 89.675 15.0993C88.079 16.6923 86.486 18.2913 84.938 19.9293C84.179 20.7363 83.489 20.8623 82.436 20.3733C80.234 19.3533 77.966 18.4623 75.683 17.6373C74.72 17.2893 74.294 16.7853 74.3 15.7803C74.315 13.4793 74.288 11.1783 74.258 8.87725C74.234 6.88525 73.352 6.00325 71.348 6.00025C68.957 5.99725 66.566 6.02125 64.175 6.05725C62.222 6.08725 61.325 7.03225 61.334 9.02725C61.346 11.3283 61.355 13.6293 61.409 15.9303C61.433 16.9383 61.013 17.4333 60.053 17.7993C57.746 18.6843 55.478 19.6833 53.231 20.7153C52.367 21.1113 51.731 21.0783 51.05 20.3913C49.4 18.7233 47.714 17.0913 46.031 15.4563C44.615 14.0823 43.319 14.0823 41.918 15.4833C40.229 17.1753 38.555 18.8823 36.899 20.6073C35.588 21.9723 35.606 23.2833 36.944 24.6213C38.603 26.2803 40.259 27.9423 41.96 29.5593C42.71 30.2703 42.713 30.9273 42.308 31.8453C41.327 34.0653 40.412 36.3213 39.593 38.6043C39.227 39.6213 38.699 40.0413 37.625 40.0263C35.369 39.9963 33.113 40.0503 30.857 40.0863C28.784 40.1193 27.908 40.9893 27.905 43.0743C27.902 45.4653 27.923 47.8563 27.965 50.2473C27.998 52.0443 28.931 52.9413 30.776 52.9503C33.077 52.9623 35.381 52.9713 37.679 52.9053C38.801 52.8723 39.41 53.2743 39.749 54.3753C40.568 57.0273 40.61 57.0153 43.382 57.0153C46.808 57.0213 50.225 57.0213 53.861 57.0213Z" fill="url(#paint1_linear_4_27)"/>
<path d="M36.575 133.68C36.575 139.269 41.03 143.697 46.655 143.7C52.205 143.7 56.717 139.152 56.678 133.599C56.636 128.055 52.091 123.6 46.505 123.63C41.012 123.66 36.575 128.151 36.575 133.68ZM46.613 137.949C44.315 137.955 42.38 136.047 42.353 133.749C42.323 131.355 44.213 129.414 46.598 129.393C48.896 129.372 50.816 131.265 50.858 133.596C50.9 135.978 48.986 137.943 46.613 137.949Z" fill="url(#paint2_linear_4_27)"/>
<path d="M95.009 143.7C100.589 143.655 104.975 139.152 104.927 133.527C104.879 128.031 100.373 123.603 94.856 123.633C89.273 123.66 84.839 128.151 84.86 133.749C84.884 139.317 89.399 143.745 95.009 143.7ZM94.922 129.393C97.181 129.384 99.128 131.307 99.173 133.593C99.218 135.921 97.28 137.922 94.946 137.952C92.621 137.979 90.62 136.011 90.614 133.689C90.608 131.364 92.576 129.402 94.922 129.393Z" fill="url(#paint3_linear_4_27)"/>
<defs>
<linearGradient id="paint0_linear_4_27" x1="82.188" y1="35.3728" x2="82.188" y2="120.623" gradientUnits="userSpaceOnUse">
<stop stop-color="#0CABAD"/>
<stop offset="1" stop-color="#08987A"/>
</linearGradient>
<linearGradient id="paint1_linear_4_27" x1="68.1514" y1="6" x2="68.1514" y2="57.0367" gradientUnits="userSpaceOnUse">
<stop stop-color="#0CABAD"/>
<stop offset="1" stop-color="#08987A"/>
</linearGradient>
<linearGradient id="paint2_linear_4_27" x1="46.6266" y1="123.63" x2="46.6266" y2="143.7" gradientUnits="userSpaceOnUse">
<stop stop-color="#0CABAD"/>
<stop offset="1" stop-color="#08987A"/>
</linearGradient>
<linearGradient id="paint3_linear_4_27" x1="94.8937" y1="123.633" x2="94.8937" y2="143.701" gradientUnits="userSpaceOnUse">
<stop stop-color="#0CABAD"/>
<stop offset="1" stop-color="#08987A"/>
</linearGradient>
</defs>
</svg>
